<svg xmlns="http://www.w3.org/2000/svg" xmlns:xlink="http://www.w3.org/1999/xlink" version="1.1" class="marks" width="325" height="262" viewBox="0 0 325 262"><rect width="325" height="262" fill="white"/><g fill="none" stroke-miterlimit="10" transform="translate(84,5)"><g class="mark-group role-frame root" role="graphics-object" aria-roledescription="group mark container"><g transform="translate(0,0)"><path class="background" aria-hidden="true" d="M0.5,0.5h120v220h-120Z" stroke="#ddd"/><g><g class="mark-group role-axis" role="graphics-symbol" aria-roledescription="axis" aria-label="X-axis titled 'date (month)' for a discrete scale with 6 values: January, August, September, October, November, December"><g transform="translate(0.5,220.5)"><path class="background" aria-hidden="true" d="M0,0h0v0h0Z" pointer-events="none"/><g><g class="mark-rule role-axis-tick" pointer-events="none"><line transform="translate(10,0)" x2="0" y2="5" stroke="#888" stroke-width="1" opacity="1"/><line transform="translate(30,0)" x2="0" y2="5" stroke="#888" stroke-width="1" opacity="1"/><line transform="translate(50,0)" x2="0" y2="5" stroke="#888" stroke-width="1" opacity="1"/><line transform="translate(70,0)" x2="0" y2="5" stroke="#888" stroke-width="1" opacity="1"/><line transform="translate(90,0)" x2="0" y2="5" stroke="#888" stroke-width="1" opacity="1"/><line transform="translate(110,0)" x2="0" y2="5" stroke="#888" stroke-width="1" opacity="1"/></g><g class="mark-text role-axis-label" pointer-events="none"><text text-anchor="middle" transform="translate(10,15)" font-family="sans-serif" font-size="10px" fill="#000" opacity="1">Jan</text><text text-anchor="middle" transform="translate(30,15)" font-family="sans-serif" font-size="10px" fill="#000" opacity="1">Aug</text><text text-anchor="middle" transform="translate(50,15)" font-family="sans-serif" font-size="10px" fill="#000" opacity="1">Sep</text><text text-anchor="middle" transform="translate(70,15)" font-family="sans-serif" font-size="10px" fill="#000" opacity="1">Oct</text><text text-anchor="middle" transform="translate(90,15)" font-family="sans-serif" font-size="10px" fill="#000" opacity="1">Nov</text><text text-anchor="middle" transform="translate(110,15)" font-family="sans-serif" font-size="10px" fill="#000" opacity="1">Dec</text></g><g class="mark-rule role-axis-domain" pointer-events="none"><line transform="translate(0,0)" x2="120" y2="0" stroke="#888" stroke-width="1" opacity="1"/></g><g class="mark-text role-axis-title" pointer-events="none"><text text-anchor="middle" transform="translate(60,30)" font-family="sans-serif" font-size="11px" font-weight="bold" fill="#000" opacity="1">date (month)</text></g></g><path class="foreground" aria-hidden="true" d="" pointer-events="none" display="none"/></g></g><g class="mark-group role-axis" role="graphics-symbol" aria-roledescription="axis" aria-label="Y-axis titled 'package' for a discrete scale with 11 values: gensim, keras, nltk, numpy, pandas, ending with transformers"><g transform="translate(0.5,0.5)"><path class="background" aria-hidden="true" d="M0,0h0v0h0Z" pointer-events="none"/><g><g class="mark-rule role-axis-tick" pointer-events="none"><line transform="translate(0,10)" x2="-5" y2="0" stroke="#888" stroke-width="1" opacity="1"/><line transform="translate(0,30)" x2="-5" y2="0" stroke="#888" stroke-width="1" opacity="1"/><line transform="translate(0,50)" x2="-5" y2="0" stroke="#888" stroke-width="1" opacity="1"/><line transform="translate(0,70)" x2="-5" y2="0" stroke="#888" stroke-width="1" opacity="1"/><line transform="translate(0,90)" x2="-5" y2="0" stroke="#888" stroke-width="1" opacity="1"/><line transform="translate(0,110)" x2="-5" y2="0" stroke="#888" stroke-width="1" opacity="1"/><line transform="translate(0,130)" x2="-5" y2="0" stroke="#888" stroke-width="1" opacity="1"/><line transform="translate(0,150)" x2="-5" y2="0" stroke="#888" stroke-width="1" opacity="1"/><line transform="translate(0,170)" x2="-5" y2="0" stroke="#888" stroke-width="1" opacity="1"/><line transform="translate(0,190)" x2="-5" y2="0" stroke="#888" stroke-width="1" opacity="1"/><line transform="translate(0,210)" x2="-5" y2="0" stroke="#888" stroke-width="1" opacity="1"/></g><g class="mark-text role-axis-label" pointer-events="none"><text text-anchor="end" transform="translate(-7,13)" font-family="sans-serif" font-size="10px" fill="#000" opacity="1">gensim</text><text text-anchor="end" transform="translate(-7,33)" font-family="sans-serif" font-size="10px" fill="#000" opacity="1">keras</text><text text-anchor="end" transform="translate(-7,53)" font-family="sans-serif" font-size="10px" fill="#000" opacity="1">nltk</text><text text-anchor="end" transform="translate(-7,73)" font-family="sans-serif" font-size="10px" fill="#000" opacity="1">numpy</text><text text-anchor="end" transform="translate(-7,93)" font-family="sans-serif" font-size="10px" fill="#000" opacity="1">pandas</text><text text-anchor="end" transform="translate(-7,113)" font-family="sans-serif" font-size="10px" fill="#000" opacity="1">scipy</text><text text-anchor="end" transform="translate(-7,133)" font-family="sans-serif" font-size="10px" fill="#000" opacity="1">sklearn</text><text text-anchor="end" transform="translate(-7,153)" font-family="sans-serif" font-size="10px" fill="#000" opacity="1">spacy</text><text text-anchor="end" transform="translate(-7,173)" font-family="sans-serif" font-size="10px" fill="#000" opacity="1">tensorflow</text><text text-anchor="end" transform="translate(-7,193)" font-family="sans-serif" font-size="10px" fill="#000" opacity="1">torch</text><text text-anchor="end" transform="translate(-7,213)" font-family="sans-serif" font-size="10px" fill="#000" opacity="1">transformers</text></g><g class="mark-rule role-axis-domain" pointer-events="none"><line transform="translate(0,0)" x2="0" y2="220" stroke="#888" stroke-width="1" opacity="1"/></g><g class="mark-text role-axis-title" pointer-events="none"><text text-anchor="middle" transform="translate(-67.123046875,110) rotate(-90) translate(0,-2)" font-family="sans-serif" font-size="11px" font-weight="bold" fill="#000" opacity="1">package</text></g></g><path class="foreground" aria-hidden="true" d="" pointer-events="none" display="none"/></g></g><g class="mark-symbol role-mark marks" role="graphics-object" aria-roledescription="symbol mark container"><path aria-label="Sum of downloads: 2894016; date (month): Aug; package: spacy" role="graphics-symbol" aria-roledescription="circle" transform="translate(30,150)" d="M1.6620956753170957,0A1.6620956753170957,1.6620956753170957,0,1,1,-1.6620956753170957,0A1.6620956753170957,1.6620956753170957,0,1,1,1.6620956753170957,0" fill="#4c78a8" stroke-width="2"/><path aria-label="Sum of downloads: 85870371; date (month): Aug; package: numpy" role="graphics-symbol" aria-roledescription="circle" transform="translate(30,70)" d="M9.053723461395602,0A9.053723461395602,9.053723461395602,0,1,1,-9.053723461395602,0A9.053723461395602,9.053723461395602,0,1,1,9.053723461395602,0" fill="#4c78a8" stroke-width="2"/><path aria-label="Sum of downloads: 10018527; date (month): Aug; package: gensim" role="graphics-symbol" aria-roledescription="circle" transform="translate(30,10)" d="M3.0924842185862813,0A3.0924842185862813,3.0924842185862813,0,1,1,-3.0924842185862813,0A3.0924842185862813,3.0924842185862813,0,1,1,3.0924842185862813,0" fill="#4c78a8" stroke-width="2"/><path aria-label="Sum of downloads: 85520825; date (month): Aug; package: pandas" role="graphics-symbol" aria-roledescription="circle" transform="translate(30,90)" d="M9.0352775182581,0A9.0352775182581,9.0352775182581,0,1,1,-9.0352775182581,0A9.0352775182581,9.0352775182581,0,1,1,9.0352775182581,0" fill="#4c78a8" stroke-width="2"/><path aria-label="Sum of downloads: 5080603; date (month): Aug; package: keras" role="graphics-symbol" aria-roledescription="circle" transform="translate(30,30)" d="M2.202232592107087,0A2.202232592107087,2.202232592107087,0,1,1,-2.202232592107087,0A2.202232592107087,2.202232592107087,0,1,1,2.202232592107087,0" fill="#4c78a8" stroke-width="2"/><path aria-label="Sum of downloads: 3466584; date (month): Aug; package: transformers" role="graphics-symbol" aria-roledescription="circle" transform="translate(30,210)" d="M1.8190993541285843,0A1.8190993541285843,1.8190993541285843,0,1,1,-1.8190993541285843,0A1.8190993541285843,1.8190993541285843,0,1,1,1.8190993541285843,0" fill="#4c78a8" stroke-width="2"/><path aria-label="Sum of downloads: 7413267; date (month): Aug; package: sklearn" role="graphics-symbol" aria-roledescription="circle" transform="translate(30,130)" d="M2.6601760348839996,0A2.6601760348839996,2.6601760348839996,0,1,1,-2.6601760348839996,0A2.6601760348839996,2.6601760348839996,0,1,1,2.6601760348839996,0" fill="#4c78a8" stroke-width="2"/><path aria-label="Sum of downloads: 11830323; date (month): Aug; package: tensorflow" role="graphics-symbol" aria-roledescription="circle" transform="translate(30,170)" d="M3.3604996667367066,0A3.3604996667367066,3.3604996667367066,0,1,1,-3.3604996667367066,0A3.3604996667367066,3.3604996667367066,0,1,1,3.3604996667367066,0" fill="#4c78a8" stroke-width="2"/><path aria-label="Sum of downloads: 31657957; date (month): Aug; package: scipy" role="graphics-symbol" aria-roledescription="circle" transform="translate(30,110)" d="M5.4972691140638394,0A5.4972691140638394,5.4972691140638394,0,1,1,-5.4972691140638394,0A5.4972691140638394,5.4972691140638394,0,1,1,5.4972691140638394,0" fill="#4c78a8" stroke-width="2"/><path aria-label="Sum of downloads: 5047595; date (month): Aug; package: torch" role="graphics-symbol" aria-roledescription="circle" transform="translate(30,190)" d="M2.195067129178291,0A2.195067129178291,2.195067129178291,0,1,1,-2.195067129178291,0A2.195067129178291,2.195067129178291,0,1,1,2.195067129178291,0" fill="#4c78a8" stroke-width="2"/><path aria-label="Sum of downloads: 12211217; date (month): Aug; package: nltk" role="graphics-symbol" aria-roledescription="circle" transform="translate(30,50)" d="M3.4141691205054383,0A3.4141691205054383,3.4141691205054383,0,1,1,-3.4141691205054383,0A3.4141691205054383,3.4141691205054383,0,1,1,3.4141691205054383,0" fill="#4c78a8" stroke-width="2"/><path aria-label="Sum of downloads: 85022688; date (month): Sep; package: pandas" role="graphics-symbol" aria-roledescription="circle" transform="translate(50,90)" d="M9.008924994141879,0A9.008924994141879,9.008924994141879,0,1,1,-9.008924994141879,0A9.008924994141879,9.008924994141879,0,1,1,9.008924994141879,0" fill="#4c78a8" stroke-width="2"/><path aria-label="Sum of downloads: 11769970; date (month): Sep; package: tensorflow" role="graphics-symbol" aria-roledescription="circle" transform="translate(50,170)" d="M3.3519168255215783,0A3.3519168255215783,3.3519168255215783,0,1,1,-3.3519168255215783,0A3.3519168255215783,3.3519168255215783,0,1,1,3.3519168255215783,0" fill="#4c78a8" stroke-width="2"/><path aria-label="Sum of downloads: 4937445; date (month): Sep; package: torch" role="graphics-symbol" aria-roledescription="circle" transform="translate(50,190)" d="M2.1709843412449543,0A2.1709843412449543,2.1709843412449543,0,1,1,-2.1709843412449543,0A2.1709843412449543,2.1709843412449543,0,1,1,2.1709843412449543,0" fill="#4c78a8" stroke-width="2"/><path aria-label="Sum of downloads: 11047946; date (month): Sep; package: gensim" role="graphics-symbol" aria-roledescription="circle" transform="translate(50,10)" d="M3.247478817662952,0A3.247478817662952,3.247478817662952,0,1,1,-3.247478817662952,0A3.247478817662952,3.247478817662952,0,1,1,3.247478817662952,0" fill="#4c78a8" stroke-width="2"/><path aria-label="Sum of downloads: 5826682; date (month): Sep; package: keras" role="graphics-symbol" aria-roledescription="circle" transform="translate(50,30)" d="M2.3583931990209037,0A2.3583931990209037,2.3583931990209037,0,1,1,-2.3583931990209037,0A2.3583931990209037,2.3583931990209037,0,1,1,2.3583931990209037,0" fill="#4c78a8" stroke-width="2"/><path aria-label="Sum of downloads: 9523233; date (month): Sep; package: nltk" role="graphics-symbol" aria-roledescription="circle" transform="translate(50,50)" d="M3.015072507197233,0A3.015072507197233,3.015072507197233,0,1,1,-3.015072507197233,0A3.015072507197233,3.015072507197233,0,1,1,3.015072507197233,0" fill="#4c78a8" stroke-width="2"/><path aria-label="Sum of downloads: 85598092; date (month): Sep; package: numpy" role="graphics-symbol" aria-roledescription="circle" transform="translate(50,70)" d="M9.039358227088561,0A9.039358227088561,9.039358227088561,0,1,1,-9.039358227088561,0A9.039358227088561,9.039358227088561,0,1,1,9.039358227088561,0" fill="#4c78a8" stroke-width="2"/><path aria-label="Sum of downloads: 2849160; date (month): Sep; package: spacy" role="graphics-symbol" aria-roledescription="circle" transform="translate(50,150)" d="M1.6491644895809259,0A1.6491644895809259,1.6491644895809259,0,1,1,-1.6491644895809259,0A1.6491644895809259,1.6491644895809259,0,1,1,1.6491644895809259,0" fill="#4c78a8" stroke-width="2"/><path aria-label="Sum of downloads: 29628002; date (month): Sep; package: scipy" role="graphics-symbol" aria-roledescription="circle" transform="translate(50,110)" d="M5.318102924089665,0A5.318102924089665,5.318102924089665,0,1,1,-5.318102924089665,0A5.318102924089665,5.318102924089665,0,1,1,5.318102924089665,0" fill="#4c78a8" stroke-width="2"/><path aria-label="Sum of downloads: 4628532; date (month): Sep; package: sklearn" role="graphics-symbol" aria-roledescription="circle" transform="translate(50,130)" d="M2.1019732792406156,0A2.1019732792406156,2.1019732792406156,0,1,1,-2.1019732792406156,0A2.1019732792406156,2.1019732792406156,0,1,1,2.1019732792406156,0" fill="#4c78a8" stroke-width="2"/><path aria-label="Sum of downloads: 2847913; date (month): Sep; package: transformers" role="graphics-symbol" aria-roledescription="circle" transform="translate(50,210)" d="M1.6488035528158425,0A1.6488035528158425,1.6488035528158425,0,1,1,-1.6488035528158425,0A1.6488035528158425,1.6488035528158425,0,1,1,1.6488035528158425,0" fill="#4c78a8" stroke-width="2"/><path aria-label="Sum of downloads: 3113019; date (month): Oct; package: transformers" role="graphics-symbol" aria-roledescription="circle" transform="translate(70,210)" d="M1.7238379652571043,0A1.7238379652571043,1.7238379652571043,0,1,1,-1.7238379652571043,0A1.7238379652571043,1.7238379652571043,0,1,1,1.7238379652571043,0" fill="#4c78a8" stroke-width="2"/><path aria-label="Sum of downloads: 9806375; date (month): Oct; package: nltk" role="graphics-symbol" aria-roledescription="circle" transform="translate(70,50)" d="M3.0595658441783025,0A3.0595658441783025,3.0595658441783025,0,1,1,-3.0595658441783025,0A3.0595658441783025,3.0595658441783025,0,1,1,3.0595658441783025,0" fill="#4c78a8" stroke-width="2"/><path aria-label="Sum of downloads: 94544463; date (month): Oct; package: numpy" role="graphics-symbol" aria-roledescription="circle" transform="translate(70,70)" d="M9.5,0A9.5,9.5,0,1,1,-9.5,0A9.5,9.5,0,1,1,9.5,0" fill="#4c78a8" stroke-width="2"/><path aria-label="Sum of downloads: 32473527; date (month): Oct; package: scipy" role="graphics-symbol" aria-roledescription="circle" transform="translate(70,110)" d="M5.5676289689913645,0A5.5676289689913645,5.5676289689913645,0,1,1,-5.5676289689913645,0A5.5676289689913645,5.5676289689913645,0,1,1,5.5676289689913645,0" fill="#4c78a8" stroke-width="2"/><path aria-label="Sum of downloads: 16188361; date (month): Oct; package: gensim" role="graphics-symbol" aria-roledescription="circle" transform="translate(70,10)" d="M3.931035771842027,0A3.931035771842027,3.931035771842027,0,1,1,-3.931035771842027,0A3.931035771842027,3.931035771842027,0,1,1,3.931035771842027,0" fill="#4c78a8" stroke-width="2"/><path aria-label="Sum of downloads: 6022225; date (month): Oct; package: torch" role="graphics-symbol" aria-roledescription="circle" transform="translate(70,190)" d="M2.3976403804245647,0A2.3976403804245647,2.3976403804245647,0,1,1,-2.3976403804245647,0A2.3976403804245647,2.3976403804245647,0,1,1,2.3976403804245647,0" fill="#4c78a8" stroke-width="2"/><path aria-label="Sum of downloads: 12150789; date (month): Oct; package: tensorflow" role="graphics-symbol" aria-roledescription="circle" transform="translate(70,170)" d="M3.405711024909645,0A3.405711024909645,3.405711024909645,0,1,1,-3.405711024909645,0A3.405711024909645,3.405711024909645,0,1,1,3.405711024909645,0" fill="#4c78a8" stroke-width="2"/><path aria-label="Sum of downloads: 4274050; date (month): Oct; package: sklearn" role="graphics-symbol" aria-roledescription="circle" transform="translate(70,130)" d="M2.0198790036808907,0A2.0198790036808907,2.0198790036808907,0,1,1,-2.0198790036808907,0A2.0198790036808907,2.0198790036808907,0,1,1,2.0198790036808907,0" fill="#4c78a8" stroke-width="2"/><path aria-label="Sum of downloads: 6431789; date (month): Oct; package: keras" role="graphics-symbol" aria-roledescription="circle" transform="translate(70,30)" d="M2.4778296751085294,0A2.4778296751085294,2.4778296751085294,0,1,1,-2.4778296751085294,0A2.4778296751085294,2.4778296751085294,0,1,1,2.4778296751085294,0" fill="#4c78a8" stroke-width="2"/><path aria-label="Sum of downloads: 3853140; date (month): Oct; package: spacy" role="graphics-symbol" aria-roledescription="circle" transform="translate(70,150)" d="M1.9178425509529102,0A1.9178425509529102,1.9178425509529102,0,1,1,-1.9178425509529102,0A1.9178425509529102,1.9178425509529102,0,1,1,1.9178425509529102,0" fill="#4c78a8" stroke-width="2"/><path aria-label="Sum of downloads: 82881698; date (month): Oct; package: pandas" role="graphics-symbol" aria-roledescription="circle" transform="translate(70,90)" d="M8.894773131241159,0A8.894773131241159,8.894773131241159,0,1,1,-8.894773131241159,0A8.894773131241159,8.894773131241159,0,1,1,8.894773131241159,0" fill="#4c78a8" stroke-width="2"/><path aria-label="Sum of downloads: 13357396; date (month): Nov; package: tensorflow" role="graphics-symbol" aria-roledescription="circle" transform="translate(90,170)" d="M3.5708076481550908,0A3.5708076481550908,3.5708076481550908,0,1,1,-3.5708076481550908,0A3.5708076481550908,3.5708076481550908,0,1,1,3.5708076481550908,0" fill="#4c78a8" stroke-width="2"/><path aria-label="Sum of downloads: 3276211; date (month): Nov; package: spacy" role="graphics-symbol" aria-roledescription="circle" transform="translate(90,150)" d="M1.7684447156399725,0A1.7684447156399725,1.7684447156399725,0,1,1,-1.7684447156399725,0A1.7684447156399725,1.7684447156399725,0,1,1,1.7684447156399725,0" fill="#4c78a8" stroke-width="2"/><path aria-label="Sum of downloads: 10268580; date (month): Nov; package: gensim" role="graphics-symbol" aria-roledescription="circle" transform="translate(90,10)" d="M3.1308391150789885,0A3.1308391150789885,3.1308391150789885,0,1,1,-3.1308391150789885,0A3.1308391150789885,3.1308391150789885,0,1,1,3.1308391150789885,0" fill="#4c78a8" stroke-width="2"/><path aria-label="Sum of downloads: 7405463; date (month): Nov; package: keras" role="graphics-symbol" aria-roledescription="circle" transform="translate(90,30)" d="M2.6587754728775184,0A2.6587754728775184,2.6587754728775184,0,1,1,-2.6587754728775184,0A2.6587754728775184,2.6587754728775184,0,1,1,2.6587754728775184,0" fill="#4c78a8" stroke-width="2"/><path aria-label="Sum of downloads: 5241821; date (month): Nov; package: sklearn" role="graphics-symbol" aria-roledescription="circle" transform="translate(90,130)" d="M2.2369004081372363,0A2.2369004081372363,2.2369004081372363,0,1,1,-2.2369004081372363,0A2.2369004081372363,2.2369004081372363,0,1,1,2.2369004081372363,0" fill="#4c78a8" stroke-width="2"/><path aria-label="Sum of downloads: 9258042; date (month): Nov; package: nltk" role="graphics-symbol" aria-roledescription="circle" transform="translate(90,50)" d="M2.9727961433473538,0A2.9727961433473538,2.9727961433473538,0,1,1,-2.9727961433473538,0A2.9727961433473538,2.9727961433473538,0,1,1,2.9727961433473538,0" fill="#4c78a8" stroke-width="2"/><path aria-label="Sum of downloads: 89009343; date (month): Nov; package: numpy" role="graphics-symbol" aria-roledescription="circle" transform="translate(90,70)" d="M9.217716636512662,0A9.217716636512662,9.217716636512662,0,1,1,-9.217716636512662,0A9.217716636512662,9.217716636512662,0,1,1,9.217716636512662,0" fill="#4c78a8" stroke-width="2"/><path aria-label="Sum of downloads: 3268120; date (month): Nov; package: transformers" role="graphics-symbol" aria-roledescription="circle" transform="translate(90,210)" d="M1.7662596715059637,0A1.7662596715059637,1.7662596715059637,0,1,1,-1.7662596715059637,0A1.7662596715059637,1.7662596715059637,0,1,1,1.7662596715059637,0" fill="#4c78a8" stroke-width="2"/><path aria-label="Sum of downloads: 6118334; date (month): Nov; package: torch" role="graphics-symbol" aria-roledescription="circle" transform="translate(90,190)" d="M2.4166966846042364,0A2.4166966846042364,2.4166966846042364,0,1,1,-2.4166966846042364,0A2.4166966846042364,2.4166966846042364,0,1,1,2.4166966846042364,0" fill="#4c78a8" stroke-width="2"/><path aria-label="Sum of downloads: 68731119; date (month): Nov; package: pandas" role="graphics-symbol" aria-roledescription="circle" transform="translate(90,90)" d="M8.09994859827219,0A8.09994859827219,8.09994859827219,0,1,1,-8.09994859827219,0A8.09994859827219,8.09994859827219,0,1,1,8.09994859827219,0" fill="#4c78a8" stroke-width="2"/><path aria-label="Sum of downloads: 33189228; date (month): Nov; package: scipy" role="graphics-symbol" aria-roledescription="circle" transform="translate(90,110)" d="M5.628648530332128,0A5.628648530332128,5.628648530332128,0,1,1,-5.628648530332128,0A5.628648530332128,5.628648530332128,0,1,1,5.628648530332128,0" fill="#4c78a8" stroke-width="2"/><path aria-label="Sum of downloads: 30833779; date (month): Dec; package: scipy" role="graphics-symbol" aria-roledescription="circle" transform="translate(110,110)" d="M5.425239726221156,0A5.425239726221156,5.425239726221156,0,1,1,-5.425239726221156,0A5.425239726221156,5.425239726221156,0,1,1,5.425239726221156,0" fill="#4c78a8" stroke-width="2"/><path aria-label="Sum of downloads: 7480046; date (month): Dec; package: keras" role="graphics-symbol" aria-roledescription="circle" transform="translate(110,30)" d="M2.6721306583594986,0A2.6721306583594986,2.6721306583594986,0,1,1,-2.6721306583594986,0A2.6721306583594986,2.6721306583594986,0,1,1,2.6721306583594986,0" fill="#4c78a8" stroke-width="2"/><path aria-label="Sum of downloads: 4605366; date (month): Dec; package: sklearn" role="graphics-symbol" aria-roledescription="circle" transform="translate(110,130)" d="M2.096706447854281,0A2.096706447854281,2.096706447854281,0,1,1,-2.096706447854281,0A2.096706447854281,2.096706447854281,0,1,1,2.096706447854281,0" fill="#4c78a8" stroke-width="2"/><path aria-label="Sum of downloads: 2964221; date (month): Dec; package: transformers" role="graphics-symbol" aria-roledescription="circle" transform="translate(110,210)" d="M1.6821349929704472,0A1.6821349929704472,1.6821349929704472,0,1,1,-1.6821349929704472,0A1.6821349929704472,1.6821349929704472,0,1,1,1.6821349929704472,0" fill="#4c78a8" stroke-width="2"/><path aria-label="Sum of downloads: 9349465; date (month): Dec; package: nltk" role="graphics-symbol" aria-roledescription="circle" transform="translate(110,50)" d="M2.987438239046886,0A2.987438239046886,2.987438239046886,0,1,1,-2.987438239046886,0A2.987438239046886,2.987438239046886,0,1,1,2.987438239046886,0" fill="#4c78a8" stroke-width="2"/><path aria-label="Sum of downloads: 10480725; date (month): Dec; package: gensim" role="graphics-symbol" aria-roledescription="circle" transform="translate(110,10)" d="M3.163014759657322,0A3.163014759657322,3.163014759657322,0,1,1,-3.163014759657322,0A3.163014759657322,3.163014759657322,0,1,1,3.163014759657322,0" fill="#4c78a8" stroke-width="2"/><path aria-label="Sum of downloads: 71130134; date (month): Dec; package: pandas" role="graphics-symbol" aria-roledescription="circle" transform="translate(110,90)" d="M8.240097851431452,0A8.240097851431452,8.240097851431452,0,1,1,-8.240097851431452,0A8.240097851431452,8.240097851431452,0,1,1,8.240097851431452,0" fill="#4c78a8" stroke-width="2"/><path aria-label="Sum of downloads: 6226089; date (month): Dec; package: torch" role="graphics-symbol" aria-roledescription="circle" transform="translate(110,190)" d="M2.4378850145908784,0A2.4378850145908784,2.4378850145908784,0,1,1,-2.4378850145908784,0A2.4378850145908784,2.4378850145908784,0,1,1,2.4378850145908784,0" fill="#4c78a8" stroke-width="2"/><path aria-label="Sum of downloads: 6145261; date (month): Dec; package: spacy" role="graphics-symbol" aria-roledescription="circle" transform="translate(110,150)" d="M2.422008829224416,0A2.422008829224416,2.422008829224416,0,1,1,-2.422008829224416,0A2.422008829224416,2.422008829224416,0,1,1,2.422008829224416,0" fill="#4c78a8" stroke-width="2"/><path aria-label="Sum of downloads: 86980462; date (month): Dec; package: numpy" role="graphics-symbol" aria-roledescription="circle" transform="translate(110,70)" d="M9.1120566397413,0A9.1120566397413,9.1120566397413,0,1,1,-9.1120566397413,0A9.1120566397413,9.1120566397413,0,1,1,9.1120566397413,0" fill="#4c78a8" stroke-width="2"/><path aria-label="Sum of downloads: 14911773; date (month): Dec; package: tensorflow" role="graphics-symbol" aria-roledescription="circle" transform="translate(110,170)" d="M3.772855720700353,0A3.772855720700353,3.772855720700353,0,1,1,-3.772855720700353,0A3.772855720700353,3.772855720700353,0,1,1,3.772855720700353,0" fill="#4c78a8" stroke-width="2"/><path aria-label="Sum of downloads: 2441983; date (month): Jan; package: transformers" role="graphics-symbol" aria-roledescription="circle" transform="translate(10,210)" d="M1.5267814462943787,0A1.5267814462943787,1.5267814462943787,0,1,1,-1.5267814462943787,0A1.5267814462943787,1.5267814462943787,0,1,1,1.5267814462943787,0" fill="#4c78a8" stroke-width="2"/><path aria-label="Sum of downloads: 66983417; date (month): Jan; package: numpy" role="graphics-symbol" aria-roledescription="circle" transform="translate(10,70)" d="M7.996302308279239,0A7.996302308279239,7.996302308279239,0,1,1,-7.996302308279239,0A7.996302308279239,7.996302308279239,0,1,1,7.996302308279239,0" fill="#4c78a8" stroke-width="2"/><path aria-label="Sum of downloads: 23810016; date (month): Jan; package: scipy" role="graphics-symbol" aria-roledescription="circle" transform="translate(10,110)" d="M4.7674417914000236,0A4.7674417914000236,4.7674417914000236,0,1,1,-4.7674417914000236,0A4.7674417914000236,4.7674417914000236,0,1,1,4.7674417914000236,0" fill="#4c78a8" stroke-width="2"/><path aria-label="Sum of downloads: 7437337; date (month): Jan; package: nltk" role="graphics-symbol" aria-roledescription="circle" transform="translate(10,50)" d="M2.664491173307805,0A2.664491173307805,2.664491173307805,0,1,1,-2.664491173307805,0A2.664491173307805,2.664491173307805,0,1,1,2.664491173307805,0" fill="#4c78a8" stroke-width="2"/><path aria-label="Sum of downloads: 5122422; date (month): Jan; package: keras" role="graphics-symbol" aria-roledescription="circle" transform="translate(10,30)" d="M2.211277426881239,0A2.211277426881239,2.211277426881239,0,1,1,-2.211277426881239,0A2.211277426881239,2.211277426881239,0,1,1,2.211277426881239,0" fill="#4c78a8" stroke-width="2"/><path aria-label="Sum of downloads: 11406890; date (month): Jan; package: tensorflow" role="graphics-symbol" aria-roledescription="circle" transform="translate(10,170)" d="M3.2998118843801967,0A3.2998118843801967,3.2998118843801967,0,1,1,-3.2998118843801967,0A3.2998118843801967,3.2998118843801967,0,1,1,3.2998118843801967,0" fill="#4c78a8" stroke-width="2"/><path aria-label="Sum of downloads: 9458266; date (month): Jan; package: gensim" role="graphics-symbol" aria-roledescription="circle" transform="translate(10,10)" d="M3.0047705734356334,0A3.0047705734356334,3.0047705734356334,0,1,1,-3.0047705734356334,0A3.0047705734356334,3.0047705734356334,0,1,1,3.0047705734356334,0" fill="#4c78a8" stroke-width="2"/><path aria-label="Sum of downloads: 3411581; date (month): Jan; package: sklearn" role="graphics-symbol" aria-roledescription="circle" transform="translate(10,130)" d="M1.804610163975552,0A1.804610163975552,1.804610163975552,0,1,1,-1.804610163975552,0A1.804610163975552,1.804610163975552,0,1,1,1.804610163975552,0" fill="#4c78a8" stroke-width="2"/><path aria-label="Sum of downloads: 4252071; date (month): Jan; package: torch" role="graphics-symbol" aria-roledescription="circle" transform="translate(10,190)" d="M2.0146787671042055,0A2.0146787671042055,2.0146787671042055,0,1,1,-2.0146787671042055,0A2.0146787671042055,2.0146787671042055,0,1,1,2.0146787671042055,0" fill="#4c78a8" stroke-width="2"/><path aria-label="Sum of downloads: 3069104; date (month): Jan; package: spacy" role="graphics-symbol" aria-roledescription="circle" transform="translate(10,150)" d="M1.7116357870486605,0A1.7116357870486605,1.7116357870486605,0,1,1,-1.7116357870486605,0A1.7116357870486605,1.7116357870486605,0,1,1,1.7116357870486605,0" fill="#4c78a8" stroke-width="2"/><path aria-label="Sum of downloads: 54368699; date (month): Jan; package: pandas" role="graphics-symbol" aria-roledescription="circle" transform="translate(10,90)" d="M7.204104865925886,0A7.204104865925886,7.204104865925886,0,1,1,-7.204104865925886,0A7.204104865925886,7.204104865925886,0,1,1,7.204104865925886,0" fill="#4c78a8" stroke-width="2"/></g><g class="mark-group role-legend" role="graphics-symbol" aria-roledescription="legend" aria-label="Symbol legend titled 'Sum of downloads' for size with values from 0 to 94,544,463"><g transform="translate(138,0)"><path class="background" aria-hidden="true" d="M0,0h98v90h-98Z" pointer-events="none"/><g><g class="mark-group role-legend-entry"><g transform="translate(0,16)"><path class="background" aria-hidden="true" d="M0,0h0v0h0Z" pointer-events="none"/><g><g class="mark-group role-scope" role="graphics-object" aria-roledescription="group mark container"><g transform="translate(0,0)"><path class="background" aria-hidden="true" d="M0,0h73.048828125v11.369387414322375h-73.048828125Z" pointer-events="none" opacity="1"/><g><g class="mark-symbol role-legend-symbol" pointer-events="none"><path transform="translate(9.5,5.5)" d="M4.369387414322375,0A4.369387414322375,4.369387414322375,0,1,1,-4.369387414322375,0A4.369387414322375,4.369387414322375,0,1,1,4.369387414322375,0" fill="#4c78a8" stroke-width="1.5" opacity="1"/></g><g class="mark-text role-legend-label" pointer-events="none"><text text-anchor="start" transform="translate(23,8.5)" font-family="sans-serif" font-size="10px" fill="#000" opacity="1">20,000,000</text></g></g><path class="foreground" aria-hidden="true" d="" pointer-events="none" display="none"/></g><g transform="translate(0,15)"><path class="background" aria-hidden="true" d="M0,0h73.048828125v14.679246940597015h-73.048828125Z" pointer-events="none" opacity="1"/><g><g class="mark-symbol role-legend-symbol" pointer-events="none"><path transform="translate(9.5,7)" d="M6.179246940597014,0A6.179246940597014,6.179246940597014,0,1,1,-6.179246940597014,0A6.179246940597014,6.179246940597014,0,1,1,6.179246940597014,0" fill="#4c78a8" stroke-width="1.5" opacity="1"/></g><g class="mark-text role-legend-label" pointer-events="none"><text text-anchor="start" transform="translate(23,10)" font-family="sans-serif" font-size="10px" fill="#000" opacity="1">40,000,000</text></g></g><path class="foreground" aria-hidden="true" d="" pointer-events="none" display="none"/></g><g transform="translate(0,33)"><path class="background" aria-hidden="true" d="M0,0h73.048828125v17.568000999558357h-73.048828125Z" pointer-events="none" opacity="1"/><g><g class="mark-symbol role-legend-symbol" pointer-events="none"><path transform="translate(9.5,8.5)" d="M7.568000999558359,0A7.568000999558359,7.568000999558359,0,1,1,-7.568000999558359,0A7.568000999558359,7.568000999558359,0,1,1,7.568000999558359,0" fill="#4c78a8" stroke-width="1.5" opacity="1"/></g><g class="mark-text role-legend-label" pointer-events="none"><text text-anchor="start" transform="translate(23,11.5)" font-family="sans-serif" font-size="10px" fill="#000" opacity="1">60,000,000</text></g></g><path class="foreground" aria-hidden="true" d="" pointer-events="none" display="none"/></g><g transform="translate(0,54)"><path class="background" aria-hidden="true" d="M0,0h73.048828125v19.73877482864475h-73.048828125Z" pointer-events="none" opacity="1"/><g><g class="mark-symbol role-legend-symbol" pointer-events="none"><path transform="translate(9.5,9.5)" d="M8.73877482864475,0A8.73877482864475,8.73877482864475,0,1,1,-8.73877482864475,0A8.73877482864475,8.73877482864475,0,1,1,8.73877482864475,0" fill="#4c78a8" stroke-width="1.5" opacity="1"/></g><g class="mark-text role-legend-label" pointer-events="none"><text text-anchor="start" transform="translate(23,12.5)" font-family="sans-serif" font-size="10px" fill="#000" opacity="1">80,000,000</text></g></g><path class="foreground" aria-hidden="true" d="" pointer-events="none" display="none"/></g></g></g><path class="foreground" aria-hidden="true" d="" pointer-events="none" display="none"/></g></g><g class="mark-text role-legend-title" pointer-events="none"><text text-anchor="start" transform="translate(0,9)" font-family="sans-serif" font-size="11px" font-weight="bold" fill="#000" opacity="1">Sum of downloads</text></g></g><path class="foreground" aria-hidden="true" d="" pointer-events="none" display="none"/></g></g></g><path class="foreground" aria-hidden="true" d="" display="none"/></g></g></g></svg>